<svg width="500" height="354" viewBox="0 0 500 354" fill="none" xmlns="http://www.w3.org/2000/svg">
<mask id="mask0_83_63" style="mask-type:luminance" maskUnits="userSpaceOnUse" x="0" y="0" width="500" height="354">
<path d="M0 0H500V353.897H0V0Z" fill="white"/>
</mask>
<g mask="url(#mask0_83_63)">
<mask id="mask1_83_63" style="mask-type:luminance" maskUnits="userSpaceOnUse" x="0" y="0" width="500" height="354">
<path d="M0 0H500V353.897H0V0Z" fill="white"/>
</mask>
<g mask="url(#mask1_83_63)">
<path fill-rule="evenodd" clip-rule="evenodd" d="M263.308 188.263C368.669 178.171 456.36 206.765 459.175 251.979C461.99 297.192 378.969 341.914 273.608 351.902C168.246 361.89 80.5552 333.4 77.7462 288.186C74.9371 242.973 158.049 198.258 263.308 188.263Z" fill="#EFEFEF"/>
</g>
<mask id="mask2_83_63" style="mask-type:luminance" maskUnits="userSpaceOnUse" x="0" y="0" width="500" height="354">
<path d="M0 0H500V353.897H0V0Z" fill="white"/>
</mask>
<g mask="url(#mask2_83_63)">
<path fill-rule="evenodd" clip-rule="evenodd" d="M103.221 291.952C91.4285 292.123 79.6628 290.526 68.1832 287.196C49.7098 281.86 32.5413 271.768 18.3147 256.131C12.6906 249.902 6.58914 242.184 2.97058 233.871C0.161512 227.344 -1.11918 219.924 1.20661 212.801C4.83121 201.637 15.5842 196.673 24.253 194.001C35.1752 190.734 47.1424 189.454 58.3062 188.658C61.7556 188.36 65.211 188.166 68.5759 187.965C64.2384 156.409 71.3064 123.96 89.1153 100.01C100.276 85.0341 114.918 74.6685 131.04 70.3289C131.04 60.6536 132.562 48.0683 133.456 41.4444C134.468 33.1725 135.972 25.0034 137.957 17.0032C139.721 10.3719 142.614 0.972042 149.199 0.480835C213.524 -4.95965 241.548 36.1007 248.694 106.738C270.382 85.8614 296.883 73.6929 324.666 73.2984C351.74 72.9447 378.123 83.8179 399.575 104.17C424.47 127.711 440.931 161.053 450.567 197.365C453.781 199.731 456.891 202.308 459.882 205.083C465.506 210.129 470.967 215.503 476.193 221.01C482.137 227.441 488.317 234.466 493.216 242.087C497.312 248.317 502.211 257.516 498.919 265.829C495.143 275.229 484.783 274.336 477.715 272.952C439.971 265.628 401.828 258.61 363.685 254.256C332.846 250.788 302.067 249.307 271.173 251.584C266.111 251.882 261.133 252.373 256.07 252.968C233.115 256.928 213.349 267.109 192.712 279.68C173.279 291.454 154.654 303.92 134.115 312.531C125.361 316.185 114.596 317.175 107.854 307.775C104.641 303.31 103.3 297.69 103.221 291.952Z" fill="#844314"/>
</g>
<mask id="mask3_83_63" style="mask-type:luminance" maskUnits="userSpaceOnUse" x="0" y="0" width="500" height="354">
<path d="M0 0H500V353.897H0V0Z" fill="white"/>
</mask>
<g mask="url(#mask3_83_63)">
<path fill-rule="evenodd" clip-rule="evenodd" d="M478.79 264.772C521.754 273.078 456.71 209.66 445.063 203.133C411.493 70.1354 304.93 50.4276 243.336 123.558C238.594 37.5818 208.081 3.84486 149.7 8.68994C143.055 9.28534 135.963 66.6672 138.223 77.0569C93.7245 84.6632 64.5586 139.485 76.858 195.78C35.8276 198.057 -21.6768 200.729 22.8152 249.999C51.3227 281.563 90.0335 285.224 110.748 283.14C107.299 299.566 113.962 312.233 131.952 304.724C175.713 286.311 207.126 253.065 255.382 244.759C320.431 237.533 383.524 246.337 478.79 264.772Z" fill="white"/>
</g>
<mask id="mask4_83_63" style="mask-type:luminance" maskUnits="userSpaceOnUse" x="0" y="0" width="500" height="354">
<path d="M0 0H500V353.897H0V0Z" fill="white"/>
</mask>
<g mask="url(#mask4_83_63)">
<path fill-rule="evenodd" clip-rule="evenodd" d="M383.306 100.605C338.415 68.3492 281.962 77.6523 243.336 123.558C239.639 57.4682 220.767 22.2502 185.753 11.6595C195.63 19.6751 214.907 37.7828 222.603 63.8986C233.205 99.9129 231.598 141.07 222.682 160.86C222.682 160.86 286.378 53.2409 383.306 100.605Z" fill="#F1F1F1"/>
</g>
<mask id="mask5_83_63" style="mask-type:luminance" maskUnits="userSpaceOnUse" x="0" y="0" width="500" height="354">
<path d="M0 0H500V353.897H0V0Z" fill="white"/>
</mask>
<g mask="url(#mask5_83_63)">
<path fill-rule="evenodd" clip-rule="evenodd" d="M220.688 37.3809C219.885 36.2943 221.329 31.2483 220.525 30.2584C219.565 28.9783 216.351 31.7469 215.306 30.5561C214.025 42.2334 205.429 51.2389 190.332 60.2369C200.934 73.0976 217.474 49.6536 220.688 37.3809ZM186.961 12.0763C179.972 3.88957 161.341 3.14529 147.29 4.35842C144.56 4.55937 139.34 18.9086 141.986 30.5784C151.144 32.4614 173.707 34.4411 186.961 12.0763Z" fill="#844314"/>
</g>
<mask id="mask6_83_63" style="mask-type:luminance" maskUnits="userSpaceOnUse" x="0" y="0" width="500" height="354">
<path d="M0 0H500V353.897H0V0Z" fill="white"/>
</mask>
<g mask="url(#mask6_83_63)">
<path fill-rule="evenodd" clip-rule="evenodd" d="M478.79 264.772C521.754 273.078 456.71 209.66 445.063 203.133C445.063 203.133 404.105 165.541 338.899 154.355C289.671 145.945 250.646 154.854 208.564 178.298C203.985 133.583 170.741 85.7944 137.093 77.3844C93.2412 85.6977 64.6552 140.013 76.858 195.81C35.8276 198.087 -21.6768 200.759 22.8152 250.029C49.3956 279.412 84.7295 284.659 106.181 283.572C105.855 284.264 105.535 284.956 105.215 285.745C107.142 284.852 108.912 283.966 110.754 283.17L110.597 283.766V283.966L110.434 284.755L110.277 285.448L110.192 286.244L110.114 286.936L110.035 287.725L109.951 288.216V289.109V289.31L109.872 289.801V291.878V292.57L109.951 293.366L110.035 293.858L110.114 294.453C111.322 304.642 118.462 310.38 131.958 304.739C175.713 286.311 207.126 253.065 255.382 244.759C320.431 237.533 383.524 246.337 478.79 264.772Z" fill="#FFA933"/>
</g>
<mask id="mask7_83_63" style="mask-type:luminance" maskUnits="userSpaceOnUse" x="0" y="0" width="500" height="354">
<path d="M0 0H500V353.897H0V0Z" fill="white"/>
</mask>
<g mask="url(#mask7_83_63)">
<path fill-rule="evenodd" clip-rule="evenodd" d="M478.79 264.772C486.257 266.261 490.516 265.464 492.286 263.284C409.971 224.873 334.591 224.97 284.373 228.036C218.199 231.995 180.214 261.974 163.432 275.229C149.701 286.11 125.126 302.335 114.125 303.823C117.75 307.381 123.597 308.177 131.952 304.709C175.713 286.311 207.126 253.065 255.382 244.759C320.431 237.532 383.524 246.337 478.79 264.772ZM6.98787 217.579C5.54407 225.096 9.79694 235.583 22.8093 250.028C49.3897 279.412 84.7235 284.659 106.175 283.572C105.849 284.264 105.529 284.956 105.209 285.745C106.091 285.254 106.979 284.852 107.861 284.458C108.571 281.057 109.537 277.745 110.748 274.566C113.4 268.039 120.951 253.988 120.951 253.988C88.9885 273.644 29.6356 257.359 6.98787 217.579Z" fill="#F59E2F"/>
</g>
<mask id="mask8_83_63" style="mask-type:luminance" maskUnits="userSpaceOnUse" x="0" y="0" width="500" height="354">
<path d="M0 0H500V353.897H0V0Z" fill="white"/>
</mask>
<g mask="url(#mask8_83_63)">
<path fill-rule="evenodd" clip-rule="evenodd" d="M160.296 121.682C162.929 121.876 165.415 123.247 167.286 125.538C163.443 131.568 162.964 139.872 166.078 146.511C162.083 150.157 156.616 150.121 152.653 146.423C148.69 142.724 147.183 136.249 148.951 130.524C150.72 124.8 155.34 121.199 160.296 121.682Z" fill="#844314"/>
</g>
<mask id="mask9_83_63" style="mask-type:luminance" maskUnits="userSpaceOnUse" x="0" y="0" width="500" height="354">
<path d="M0 0H500V353.897H0V0Z" fill="white"/>
</mask>
<g mask="url(#mask9_83_63)">
<path d="M104.725 287.1C107.952 272.695 113.991 259.482 122.317 248.614C130.267 238.128 140.222 226.748 153.953 217.743C159.819 214.022 162.223 221.405 157.33 224.575C143.835 233.283 133.559 242.579 125.845 252.767C118.063 262.908 112.411 275.238 109.383 288.685L104.725 287.1Z" fill="#844314"/>
</g>
<mask id="mask10_83_63" style="mask-type:luminance" maskUnits="userSpaceOnUse" x="0" y="0" width="500" height="354">
<path d="M0 0H500V353.897H0V0Z" fill="white"/>
</mask>
<g mask="url(#mask10_83_63)">
<path fill-rule="evenodd" clip-rule="evenodd" d="M139.419 261.378C146.728 260.88 162.87 276.122 152.751 283.937C142.632 291.751 127.778 295.019 124.401 292.54C113.642 284.234 131.227 261.87 139.419 261.378Z" fill="#FFEC98"/>
</g>
<mask id="mask11_83_63" style="mask-type:luminance" maskUnits="userSpaceOnUse" x="0" y="0" width="500" height="354">
<path d="M0 0H500V353.897H0V0Z" fill="white"/>
</mask>
<g mask="url(#mask11_83_63)">
<path fill-rule="evenodd" clip-rule="evenodd" d="M86.9768 209.928C62.0819 207.063 32.6078 214.089 38.7938 227.344C44.9798 240.599 80.7969 257.114 95.5792 251.904C106.9 247.945 107.776 214.669 86.9768 209.928Z" fill="#FFEC98"/>
</g>
</g>
</svg>
