<svg width="1039" height="354" viewBox="0 0 1039 354" fill="none" xmlns="http://www.w3.org/2000/svg">
<mask id="mask0_83_68" style="mask-type:luminance" maskUnits="userSpaceOnUse" x="0" y="0" width="500" height="354">
<path d="M0 0H500V353.897H0V0Z" fill="white"/>
</mask>
<g mask="url(#mask0_83_68)">
<mask id="mask1_83_68" style="mask-type:luminance" maskUnits="userSpaceOnUse" x="0" y="0" width="500" height="354">
<path d="M0 0H500V353.897H0V0Z" fill="white"/>
</mask>
<g mask="url(#mask1_83_68)">
<path fill-rule="evenodd" clip-rule="evenodd" d="M263.308 188.263C368.669 178.171 456.36 206.765 459.175 251.979C461.99 297.192 378.969 341.914 273.608 351.902C168.246 361.89 80.5552 333.4 77.7462 288.186C74.9371 242.973 158.049 198.258 263.308 188.263Z" fill="#EFEFEF"/>
</g>
<mask id="mask2_83_68" style="mask-type:luminance" maskUnits="userSpaceOnUse" x="0" y="0" width="500" height="354">
<path d="M0 0H500V353.897H0V0Z" fill="white"/>
</mask>
<g mask="url(#mask2_83_68)">
<path fill-rule="evenodd" clip-rule="evenodd" d="M103.221 291.952C91.4285 292.123 79.6628 290.526 68.1832 287.196C49.7098 281.86 32.5413 271.768 18.3147 256.131C12.6906 249.902 6.58914 242.184 2.97058 233.871C0.161512 227.344 -1.11918 219.924 1.20661 212.801C4.83121 201.637 15.5842 196.673 24.253 194.001C35.1752 190.734 47.1424 189.454 58.3062 188.658C61.7556 188.36 65.211 188.166 68.5759 187.965C64.2384 156.409 71.3064 123.96 89.1153 100.01C100.276 85.0341 114.918 74.6685 131.04 70.3289C131.04 60.6536 132.562 48.0683 133.456 41.4444C134.468 33.1725 135.972 25.0034 137.957 17.0032C139.721 10.3719 142.614 0.972042 149.199 0.480835C213.524 -4.95965 241.548 36.1007 248.694 106.738C270.382 85.8614 296.883 73.6929 324.666 73.2984C351.74 72.9447 378.123 83.8179 399.575 104.17C424.47 127.711 440.931 161.053 450.567 197.365C453.781 199.731 456.891 202.308 459.882 205.083C465.506 210.129 470.967 215.503 476.193 221.01C482.137 227.441 488.317 234.466 493.216 242.087C497.312 248.317 502.211 257.516 498.919 265.829C495.143 275.229 484.783 274.336 477.715 272.952C439.971 265.628 401.828 258.61 363.685 254.256C332.846 250.788 302.067 249.307 271.173 251.584C266.111 251.882 261.133 252.373 256.07 252.968C233.115 256.928 213.349 267.109 192.712 279.68C173.279 291.454 154.654 303.92 134.115 312.531C125.361 316.185 114.596 317.175 107.854 307.775C104.641 303.31 103.3 297.69 103.221 291.952Z" fill="#844314"/>
</g>
<mask id="mask3_83_68" style="mask-type:luminance" maskUnits="userSpaceOnUse" x="0" y="0" width="500" height="354">
<path d="M0 0H500V353.897H0V0Z" fill="white"/>
</mask>
<g mask="url(#mask3_83_68)">
<path fill-rule="evenodd" clip-rule="evenodd" d="M478.79 264.772C521.754 273.078 456.71 209.66 445.063 203.133C411.493 70.1354 304.93 50.4276 243.336 123.558C238.594 37.5818 208.081 3.84486 149.7 8.68994C143.055 9.28534 135.963 66.6672 138.223 77.0569C93.7245 84.6632 64.5586 139.485 76.858 195.78C35.8276 198.057 -21.6768 200.729 22.8152 249.999C51.3227 281.563 90.0335 285.224 110.748 283.14C107.299 299.566 113.962 312.233 131.952 304.724C175.713 286.311 207.126 253.065 255.382 244.759C320.431 237.533 383.524 246.337 478.79 264.772Z" fill="white"/>
</g>
<mask id="mask4_83_68" style="mask-type:luminance" maskUnits="userSpaceOnUse" x="0" y="0" width="500" height="354">
<path d="M0 0H500V353.897H0V0Z" fill="white"/>
</mask>
<g mask="url(#mask4_83_68)">
<path fill-rule="evenodd" clip-rule="evenodd" d="M383.306 100.605C338.415 68.3492 281.962 77.6523 243.336 123.558C239.639 57.4682 220.767 22.2502 185.753 11.6595C195.63 19.6751 214.907 37.7828 222.603 63.8986C233.205 99.9129 231.598 141.07 222.682 160.86C222.682 160.86 286.378 53.2409 383.306 100.605Z" fill="#F1F1F1"/>
</g>
<mask id="mask5_83_68" style="mask-type:luminance" maskUnits="userSpaceOnUse" x="0" y="0" width="500" height="354">
<path d="M0 0H500V353.897H0V0Z" fill="white"/>
</mask>
<g mask="url(#mask5_83_68)">
<path fill-rule="evenodd" clip-rule="evenodd" d="M220.688 37.3809C219.885 36.2943 221.329 31.2483 220.525 30.2584C219.565 28.9783 216.351 31.7469 215.306 30.5561C214.025 42.2334 205.429 51.2389 190.332 60.2369C200.934 73.0976 217.474 49.6536 220.688 37.3809ZM186.961 12.0763C179.972 3.88957 161.341 3.14529 147.29 4.35842C144.56 4.55937 139.34 18.9086 141.986 30.5784C151.144 32.4614 173.707 34.4411 186.961 12.0763Z" fill="#844314"/>
</g>
<mask id="mask6_83_68" style="mask-type:luminance" maskUnits="userSpaceOnUse" x="0" y="0" width="500" height="354">
<path d="M0 0H500V353.897H0V0Z" fill="white"/>
</mask>
<g mask="url(#mask6_83_68)">
<path fill-rule="evenodd" clip-rule="evenodd" d="M478.79 264.772C521.754 273.078 456.71 209.66 445.063 203.133C445.063 203.133 404.105 165.541 338.899 154.355C289.671 145.945 250.646 154.854 208.564 178.298C203.985 133.583 170.741 85.7944 137.093 77.3844C93.2412 85.6977 64.6552 140.013 76.858 195.81C35.8276 198.087 -21.6768 200.759 22.8152 250.029C49.3956 279.412 84.7295 284.659 106.181 283.572C105.855 284.264 105.535 284.956 105.215 285.745C107.142 284.852 108.912 283.966 110.754 283.17L110.597 283.766V283.966L110.434 284.755L110.277 285.448L110.192 286.244L110.114 286.936L110.035 287.725L109.951 288.216V289.109V289.31L109.872 289.801V291.878V292.57L109.951 293.366L110.035 293.858L110.114 294.453C111.322 304.642 118.462 310.38 131.958 304.739C175.713 286.311 207.126 253.065 255.382 244.759C320.431 237.533 383.524 246.337 478.79 264.772Z" fill="#FFA933"/>
</g>
<mask id="mask7_83_68" style="mask-type:luminance" maskUnits="userSpaceOnUse" x="0" y="0" width="500" height="354">
<path d="M0 0H500V353.897H0V0Z" fill="white"/>
</mask>
<g mask="url(#mask7_83_68)">
<path fill-rule="evenodd" clip-rule="evenodd" d="M478.79 264.772C486.257 266.261 490.516 265.464 492.286 263.284C409.971 224.873 334.591 224.97 284.373 228.036C218.199 231.995 180.214 261.974 163.432 275.229C149.701 286.11 125.126 302.335 114.125 303.823C117.75 307.381 123.597 308.177 131.952 304.709C175.713 286.311 207.126 253.065 255.382 244.759C320.431 237.532 383.524 246.337 478.79 264.772ZM6.98787 217.579C5.54407 225.096 9.79694 235.583 22.8093 250.028C49.3897 279.412 84.7235 284.659 106.175 283.572C105.849 284.264 105.529 284.956 105.209 285.745C106.091 285.254 106.979 284.852 107.861 284.458C108.571 281.057 109.537 277.745 110.748 274.566C113.4 268.039 120.951 253.988 120.951 253.988C88.9885 273.644 29.6356 257.359 6.98787 217.579Z" fill="#F59E2F"/>
</g>
<mask id="mask8_83_68" style="mask-type:luminance" maskUnits="userSpaceOnUse" x="0" y="0" width="500" height="354">
<path d="M0 0H500V353.897H0V0Z" fill="white"/>
</mask>
<g mask="url(#mask8_83_68)">
<path fill-rule="evenodd" clip-rule="evenodd" d="M160.296 121.682C162.929 121.876 165.415 123.247 167.286 125.538C163.443 131.568 162.964 139.872 166.078 146.511C162.083 150.157 156.616 150.121 152.653 146.423C148.69 142.724 147.183 136.249 148.951 130.524C150.72 124.8 155.34 121.199 160.296 121.682Z" fill="#844314"/>
</g>
<mask id="mask9_83_68" style="mask-type:luminance" maskUnits="userSpaceOnUse" x="0" y="0" width="500" height="354">
<path d="M0 0H500V353.897H0V0Z" fill="white"/>
</mask>
<g mask="url(#mask9_83_68)">
<path d="M104.725 287.1C107.952 272.695 113.991 259.482 122.317 248.614C130.267 238.128 140.222 226.748 153.953 217.743C159.819 214.022 162.223 221.405 157.33 224.575C143.835 233.283 133.559 242.579 125.845 252.767C118.063 262.908 112.411 275.238 109.383 288.685L104.725 287.1Z" fill="#844314"/>
</g>
<mask id="mask10_83_68" style="mask-type:luminance" maskUnits="userSpaceOnUse" x="0" y="0" width="500" height="354">
<path d="M0 0H500V353.897H0V0Z" fill="white"/>
</mask>
<g mask="url(#mask10_83_68)">
<path fill-rule="evenodd" clip-rule="evenodd" d="M139.419 261.378C146.728 260.88 162.87 276.122 152.751 283.937C142.632 291.751 127.778 295.019 124.401 292.54C113.642 284.234 131.227 261.87 139.419 261.378Z" fill="#FFEC98"/>
</g>
<mask id="mask11_83_68" style="mask-type:luminance" maskUnits="userSpaceOnUse" x="0" y="0" width="500" height="354">
<path d="M0 0H500V353.897H0V0Z" fill="white"/>
</mask>
<g mask="url(#mask11_83_68)">
<path fill-rule="evenodd" clip-rule="evenodd" d="M86.9768 209.928C62.0819 207.063 32.6078 214.089 38.7938 227.344C44.9798 240.599 80.7969 257.114 95.5792 251.904C106.9 247.945 107.776 214.669 86.9768 209.928Z" fill="#FFEC98"/>
</g>
</g>
<path d="M582.968 123.6C588.584 123.6 593.822 125.22 598.682 128.46C603.65 131.7 607.646 136.074 610.67 141.582C613.694 147.09 615.206 153.246 615.206 160.05C615.206 166.746 613.694 172.848 610.67 178.356C607.646 183.864 603.65 188.292 598.682 191.64C593.822 194.88 588.584 196.5 582.968 196.5H553.16L554.78 193.584V227.118C554.78 229.926 553.916 232.302 552.188 234.246C550.46 236.082 548.192 237 545.384 237C542.684 237 540.47 236.082 538.742 234.246C537.014 232.302 536.15 229.926 536.15 227.118V133.482C536.15 130.674 537.068 128.352 538.904 126.516C540.848 124.572 543.224 123.6 546.032 123.6H582.968ZM582.968 178.032C585.02 178.032 587.018 177.168 588.962 175.44C590.906 173.712 592.526 171.498 593.822 168.798C595.118 165.99 595.766 163.074 595.766 160.05C595.766 156.918 595.118 154.002 593.822 151.302C592.526 148.602 590.906 146.442 588.962 144.822C587.018 143.094 585.02 142.23 582.968 142.23H552.836L554.78 139.314V180.624L552.998 178.032H582.968ZM671.383 238.62C662.203 238.62 654.211 236.73 647.407 232.95C640.711 229.062 635.527 223.824 631.855 217.236C628.291 210.648 626.509 203.196 626.509 194.88C626.509 185.16 628.453 176.898 632.341 170.094C636.337 163.182 641.521 157.89 647.893 154.218C654.265 150.546 661.015 148.71 668.143 148.71C673.651 148.71 678.835 149.844 683.695 152.112C688.663 154.38 693.037 157.512 696.817 161.508C700.597 165.396 703.567 169.932 705.727 175.116C707.995 180.3 709.129 185.808 709.129 191.64C709.021 194.232 707.995 196.338 706.051 197.958C704.107 199.578 701.839 200.388 699.247 200.388H637.363L632.503 184.188H691.957L688.393 187.428V183.054C688.177 179.922 687.043 177.114 684.991 174.63C683.047 172.146 680.563 170.202 677.539 168.798C674.623 167.286 671.491 166.53 668.143 166.53C664.903 166.53 661.879 166.962 659.071 167.826C656.263 168.69 653.833 170.148 651.781 172.2C649.729 174.252 648.109 177.006 646.921 180.462C645.733 183.918 645.139 188.292 645.139 193.584C645.139 199.416 646.327 204.384 648.703 208.488C651.187 212.484 654.319 215.562 658.099 217.722C661.987 219.774 666.091 220.8 670.411 220.8C674.407 220.8 677.593 220.476 679.969 219.828C682.345 219.18 684.235 218.424 685.639 217.56C687.151 216.588 688.501 215.778 689.689 215.13C691.633 214.158 693.469 213.672 695.197 213.672C697.573 213.672 699.517 214.482 701.029 216.102C702.649 217.722 703.459 219.612 703.459 221.772C703.459 224.688 701.947 227.334 698.923 229.71C696.115 232.086 692.173 234.192 687.097 236.028C682.021 237.756 676.783 238.62 671.383 238.62ZM727.086 151.95H765.48C768.072 151.95 770.232 152.814 771.96 154.542C773.688 156.27 774.552 158.43 774.552 161.022C774.552 163.506 773.688 165.612 771.96 167.34C770.232 168.96 768.072 169.77 765.48 169.77H727.086C724.494 169.77 722.334 168.906 720.606 167.178C718.878 165.45 718.014 163.29 718.014 160.698C718.014 158.214 718.878 156.162 720.606 154.542C722.334 152.814 724.494 151.95 727.086 151.95ZM744.42 131.7C747.228 131.7 749.496 132.672 751.224 134.616C753.06 136.452 753.978 138.774 753.978 141.582V213.672C753.978 215.184 754.248 216.426 754.788 217.398C755.436 218.37 756.246 219.072 757.218 219.504C758.298 219.936 759.432 220.152 760.62 220.152C761.916 220.152 763.104 219.936 764.184 219.504C765.264 218.964 766.506 218.694 767.91 218.694C769.422 218.694 770.772 219.396 771.96 220.8C773.256 222.204 773.904 224.148 773.904 226.632C773.904 229.656 772.23 232.14 768.882 234.084C765.642 236.028 762.132 237 758.352 237C756.084 237 753.546 236.838 750.738 236.514C748.038 236.082 745.446 235.164 742.962 233.76C740.586 232.248 738.588 229.98 736.968 226.956C735.348 223.932 734.538 219.774 734.538 214.482V141.582C734.538 138.774 735.456 136.452 737.292 134.616C739.236 132.672 741.612 131.7 744.42 131.7ZM847.643 219.18C850.235 219.18 852.395 220.044 854.123 221.772C855.851 223.392 856.715 225.498 856.715 228.09C856.715 230.574 855.851 232.68 854.123 234.408C852.395 236.136 850.235 237 847.643 237H795.479C792.779 237 790.619 236.028 788.999 234.084C787.379 232.14 786.623 230.196 786.731 228.252C786.839 226.632 787.055 225.228 787.379 224.04C787.703 222.744 788.513 221.286 789.809 219.666L830.147 167.502L829.823 169.77H796.937C794.345 169.77 792.185 168.906 790.457 167.178C788.729 165.45 787.865 163.29 787.865 160.698C787.865 158.214 788.729 156.162 790.457 154.542C792.185 152.814 794.345 151.95 796.937 151.95H846.833C849.317 151.95 851.423 152.868 853.151 154.704C854.879 156.54 855.635 158.862 855.419 161.67C855.311 162.75 855.095 163.83 854.771 164.91C854.555 165.99 853.853 167.286 852.665 168.798L812.975 220.152V219.18H847.643ZM926.112 219.18C928.704 219.18 930.864 220.044 932.592 221.772C934.32 223.392 935.184 225.498 935.184 228.09C935.184 230.574 934.32 232.68 932.592 234.408C930.864 236.136 928.704 237 926.112 237H873.948C871.248 237 869.088 236.028 867.468 234.084C865.848 232.14 865.092 230.196 865.2 228.252C865.308 226.632 865.524 225.228 865.848 224.04C866.172 222.744 866.982 221.286 868.278 219.666L908.616 167.502L908.292 169.77H875.406C872.814 169.77 870.654 168.906 868.926 167.178C867.198 165.45 866.334 163.29 866.334 160.698C866.334 158.214 867.198 156.162 868.926 154.542C870.654 152.814 872.814 151.95 875.406 151.95H925.302C927.786 151.95 929.892 152.868 931.62 154.704C933.348 156.54 934.104 158.862 933.888 161.67C933.78 162.75 933.564 163.83 933.24 164.91C933.024 165.99 932.322 167.286 931.134 168.798L891.444 220.152V219.18H926.112ZM1031.83 193.746C1031.83 202.602 1029.84 210.432 1025.84 217.236C1021.95 223.932 1016.66 229.17 1009.96 232.95C1003.38 236.73 995.979 238.62 987.771 238.62C979.563 238.62 972.111 236.73 965.415 232.95C958.827 229.17 953.535 223.932 949.539 217.236C945.651 210.432 943.707 202.602 943.707 193.746C943.707 184.89 945.651 177.114 949.539 170.418C953.535 163.614 958.827 158.322 965.415 154.542C972.111 150.654 979.563 148.71 987.771 148.71C995.979 148.71 1003.38 150.654 1009.96 154.542C1016.66 158.322 1021.95 163.614 1025.84 170.418C1029.84 177.114 1031.83 184.89 1031.83 193.746ZM1012.39 193.746C1012.39 188.238 1011.26 183.486 1008.99 179.49C1006.83 175.386 1003.86 172.2 1000.08 169.932C996.411 167.664 992.307 166.53 987.771 166.53C983.235 166.53 979.077 167.664 975.297 169.932C971.625 172.2 968.655 175.386 966.387 179.49C964.227 183.486 963.147 188.238 963.147 193.746C963.147 199.146 964.227 203.898 966.387 208.002C968.655 211.998 971.625 215.13 975.297 217.398C979.077 219.666 983.235 220.8 987.771 220.8C992.307 220.8 996.411 219.666 1000.08 217.398C1003.86 215.13 1006.83 211.998 1008.99 208.002C1011.26 203.898 1012.39 199.146 1012.39 193.746Z" fill="#FFA933"/>
</svg>
